<?xml version="1.0" encoding="utf-8"?>
<!-- Generator: Adobe Illustrator 24.3.0, SVG Export Plug-In . SVG Version: 6.00 Build 0)  -->
<svg version="1.1" id="Camada_1" xmlns="http://www.w3.org/2000/svg" xmlns:xlink="http://www.w3.org/1999/xlink" x="0px" y="0px"
	 viewBox="0 0 217.37 207.65" style="enable-background:new 0 0 217.37 207.65;" xml:space="preserve">
<style type="text/css">
	.st0{fill-rule:evenodd;clip-rule:evenodd;fill:#FBD12E;}
	.st1{fill-rule:evenodd;clip-rule:evenodd;fill:none;stroke:#FBD12E;stroke-width:7;stroke-miterlimit:10;}
	.st2{fill-rule:evenodd;clip-rule:evenodd;fill:#423A26;}
	.st3{fill-rule:evenodd;clip-rule:evenodd;fill:#363339;}
	.st4{filter:url(#Adobe_OpacityMaskFilter);}
	.st5{fill-rule:evenodd;clip-rule:evenodd;fill:url(#);}
	.st6{opacity:0.49;mask:url(#SVGID_1_);fill-rule:evenodd;clip-rule:evenodd;fill:#1A1A18;}
	.st7{fill-rule:evenodd;clip-rule:evenodd;fill:#FBFBFB;}
	.st8{fill-rule:evenodd;clip-rule:evenodd;fill:#927D29;}
	.st9{fill-rule:evenodd;clip-rule:evenodd;fill:#FCD222;}
	.st10{fill-rule:evenodd;clip-rule:evenodd;fill:#636165;}
	.st11{fill-rule:evenodd;clip-rule:evenodd;fill:#BBBABB;}
	.st12{fill-rule:evenodd;clip-rule:evenodd;fill:#A5A5A6;}
	.st13{fill-rule:evenodd;clip-rule:evenodd;fill:#757376;}
	.st14{fill-rule:evenodd;clip-rule:evenodd;fill:#A78E2C;}
	.st15{fill-rule:evenodd;clip-rule:evenodd;fill:#806E2B;}
	.st16{fill-rule:evenodd;clip-rule:evenodd;fill:#989799;}
	.st17{fill-rule:evenodd;clip-rule:evenodd;fill:#8F8E90;}
	.st18{fill-rule:evenodd;clip-rule:evenodd;fill:#B2B1B3;}
	.st19{fill-rule:evenodd;clip-rule:evenodd;fill:#78757A;}
	.st20{fill-rule:evenodd;clip-rule:evenodd;fill:#7D7A7F;}
	.st21{fill-rule:evenodd;clip-rule:evenodd;fill:#878589;}
	.st22{fill-rule:evenodd;clip-rule:evenodd;fill:#7F7D80;}
	.st23{fill-rule:evenodd;clip-rule:evenodd;fill:#868488;}
	.st24{fill-rule:evenodd;clip-rule:evenodd;fill:#969498;}
	.st25{fill-rule:evenodd;clip-rule:evenodd;fill:#7C7B7D;}
	.st26{fill-rule:evenodd;clip-rule:evenodd;fill:#838285;}
	.st27{fill-rule:evenodd;clip-rule:evenodd;fill:#8A898B;}
	.st28{fill-rule:evenodd;clip-rule:evenodd;fill:#A7A6A8;}
	.st29{fill-rule:evenodd;clip-rule:evenodd;fill:#BAB9BB;}
	.st30{fill-rule:evenodd;clip-rule:evenodd;fill:#9F9EA0;}
	.st31{fill-rule:evenodd;clip-rule:evenodd;fill:#B8B8B9;}
	.st32{fill-rule:evenodd;clip-rule:evenodd;fill:#838084;}
	.st33{fill-rule:evenodd;clip-rule:evenodd;fill:#ADACAE;}
	.st34{fill-rule:evenodd;clip-rule:evenodd;fill:#BCBCBD;}
	.st35{fill-rule:evenodd;clip-rule:evenodd;fill:#AAAAAB;}
	.st36{fill-rule:evenodd;clip-rule:evenodd;fill:#99989A;}
	.st37{fill-rule:evenodd;clip-rule:evenodd;fill:#99E835;}
	.st38{fill-rule:evenodd;clip-rule:evenodd;}
</style>
<circle class="st37" cx="112.51" cy="103.5" r="100"/>
<g>
	<path d="M150.38,41.22l2.01-9.1l1.17,0.78l-1.86,7.59l6.27-4.67l1.17,0.78l-7.59,5.4L150.38,41.22z"/>
	<path d="M154.47,43.93l8.31-4.36l1.08,0.92l-2.93,8.91l-1.06-0.9l0.8-2.28l-3-2.54l-2.14,1.15L154.47,43.93z M158.74,43.05
		l2.33,1.97l1.47-4.06L158.74,43.05z"/>
	<path d="M162.18,50.58l6.52-5.76l1.15,1.31l-3.33,6.82l7.17-2.46l1.15,1.3l-6.52,5.76l-0.88-0.99l5.21-4.54l-7.03,2.47l-0.75-0.85
		l3.36-6.65l-5.19,4.58L162.18,50.58z"/>
	<path d="M173.15,56.74c2.24-1.44,4.83-0.84,6.33,1.49c1.49,2.32,0.96,4.93-1.28,6.37c-2.25,1.44-4.85,0.85-6.34-1.47
		C170.37,60.81,170.9,58.19,173.15,56.74z M177.48,63.48c1.52-0.98,2.33-2.7,1.07-4.66c-1.27-1.97-3.16-1.95-4.69-0.97
		c-1.54,0.99-2.34,2.7-1.08,4.67C174.05,64.49,175.94,64.48,177.48,63.48z"/>
	<path d="M177.9,66.93l0.56,1.2c-1.2,0.68-1.43,1.84-0.69,3.42c0.58,1.24,1.36,1.73,2.15,1.36c1.01-0.47,0.92-1.14,0.42-3.22
		c-0.31-1.41-0.63-3.18,0.92-3.91c1.3-0.61,2.63,0.14,3.49,2c0.91,1.95,0.52,3.62-1.05,4.48l-0.56-1.19
		c1.02-0.64,1.21-1.55,0.61-2.83c-0.52-1.1-1.2-1.6-1.82-1.31c-0.98,0.46-0.7,1.38-0.41,2.75c0.46,2.13,0.76,3.57-1.04,4.42
		c-1.17,0.55-2.69,0.11-3.72-2.09C175.73,69.81,176.17,67.82,177.9,66.93z"/>
	<path d="M180.86,82.52l7.33-2.05l-0.84-3.01l1.05-0.29l2.04,7.3l-1.05,0.29l-0.84-3.01l-7.33,2.05L180.86,82.52z"/>
	<path d="M182.33,88.18l8.58-1.38l0.56,3.5c0.28,1.72-0.47,2.92-2.01,3.17c-1.16,0.19-2.02-0.23-2.42-1.19
		c-0.02,1.33-1.67,1.69-2.73,1.94c-0.5,0.12-0.65,0.16-0.7,0.31l-0.26,0.04l-0.23-1.41c0.09-0.12,0.41-0.19,0.83-0.26
		c1-0.18,2.46-0.47,2.23-1.88l-0.33-2.05l-3.31,0.53L182.33,88.18z M187.04,88.79l0.3,1.89c0.14,0.84,0.46,1.72,1.75,1.51
		c1.26-0.2,1.3-1.13,1.16-1.98l-0.3-1.89L187.04,88.79z"/>
	<path d="M183.57,96.05l8.84,3.16l0.06,1.42l-8.54,3.87l-0.06-1.39l2.22-0.96l-0.16-3.93l-2.29-0.8L183.57,96.05z M187.11,98.6
		l0.13,3.04l3.98-1.67L187.11,98.6z"/>
	<path d="M183.84,106.26l8.67,0.7l-0.31,3.84c-0.16,1.94-1.1,3.07-2.47,2.96c-0.85-0.07-1.41-0.55-1.66-1.44
		c-0.32,1.01-1.18,1.57-2.27,1.48c-1.59-0.13-2.45-1.42-2.29-3.44L183.84,106.26z M184.83,107.66l-0.24,2.91
		c-0.1,1.2,0.32,1.84,1.31,1.92c0.88,0.07,1.49-0.49,1.57-1.42l0.26-3.16L184.83,107.66z M188.84,107.99l-0.22,2.71
		c-0.09,1.13,0.24,1.66,1.1,1.73c0.81,0.07,1.3-0.45,1.37-1.4l0.23-2.84L188.84,107.99z"/>
	<path d="M183.09,114.86l7.79,5.23l-0.29,1.39l-9.23,1.66l0.29-1.36l2.39-0.39l0.81-3.85l-2.03-1.33L183.09,114.86z M185.9,118.19
		l-0.62,2.98l4.27-0.64L185.9,118.19z"/>
	<path d="M180.82,124.82l8.24,2.77l-0.42,1.25l-7.2-2.42l-1.57,4.68l-1.04-0.35L180.82,124.82z"/>
	<path d="M178.22,132.31l7.85,3.72l-0.57,1.19l-3.28-1.56l-2.09,4.41l3.28,1.56l-0.56,1.18l-7.86-3.72l0.56-1.18l3.57,1.69
		l2.09-4.41l-3.57-1.69L178.22,132.31z"/>
	<path d="M174.16,140.66l5.38,7.68l-0.77,1.19l-9.2-1.78l0.76-1.17l2.37,0.5l2.14-3.3l-1.41-1.97L174.16,140.66z M175.57,144.78
		l-1.65,2.56l4.21,0.94L175.57,144.78z"/>
	<path d="M168.62,148.93l6.67,5.57l-2.27,2.72c-1.12,1.34-2.52,1.56-3.71,0.56c-0.9-0.75-1.15-1.68-0.69-2.6
		c-1.02,0.86-2.37-0.15-3.25-0.79c-0.41-0.3-0.55-0.38-0.69-0.32l-0.2-0.17l0.92-1.1c0.15-0.01,0.41,0.19,0.74,0.45
		c0.79,0.63,1.96,1.55,2.88,0.45l1.33-1.59l-2.57-2.15L168.62,148.93z M171.25,152.88l-1.22,1.47c-0.55,0.66-0.99,1.47,0.01,2.31
		c0.98,0.82,1.71,0.23,2.25-0.42l1.22-1.47L171.25,152.88z"/>
	<path d="M162.98,159.28l0.21,0.24l-0.99,0.88l-0.21-0.23c-0.81-0.91-1.53-0.99-2.38-0.23c-0.87,0.77-0.89,1.49-0.08,2.41l3.97,4.5
		l-0.99,0.88l-3.97-4.5c-1.23-1.39-1.12-2.84,0.34-4.11C160.31,157.81,161.75,157.89,162.98,159.28z"/>
	<path d="M157.02,164.76l3.3,4.73l-1.1,0.76l-3.3-4.73c-0.77-1.1-1.76-1.19-3.05-0.28s-1.57,1.87-0.8,2.97l3.3,4.73l-1.08,0.75
		l-3.3-4.73c-1.12-1.61-0.68-3.29,1.24-4.63C154.15,162.99,155.89,163.14,157.02,164.76z"/>
	<path d="M147.56,167.63l3.98,7.73l-1.38,0.71l-7.28-4.04l3.17,6.16l-1.17,0.6l-3.98-7.73l1.38-0.71l7.26,4.02l-3.15-6.13
		L147.56,167.63z"/>
	<path d="M136.7,172.67l2.59,7.15l2.94-1.06l0.37,1.02l-7.13,2.58l-0.37-1.02l2.94-1.06l-2.59-7.15L136.7,172.67z"/>
	<path d="M132.69,178.71c0.56,2.59-0.91,4.82-3.61,5.4c-2.69,0.58-4.95-0.83-5.51-3.42c-0.57-2.61,0.9-4.84,3.59-5.42
		C129.85,174.68,132.13,176.09,132.69,178.71z M124.87,180.41c0.38,1.77,1.71,3.12,3.99,2.63c2.29-0.5,2.93-2.28,2.55-4.05
		c-0.39-1.79-1.71-3.14-4-2.64C125.12,176.84,124.48,178.62,124.87,180.41z"/>
	<path d="M121.49,179.59l-1.32,0.09c-0.2-1.36-1.21-2-2.95-1.87c-1.37,0.1-2.1,0.64-2.04,1.52c0.08,1.11,0.74,1.27,2.86,1.54
		c1.42,0.21,3.2,0.55,3.32,2.26c0.1,1.43-1.07,2.4-3.12,2.54c-2.15,0.15-3.57-0.81-3.81-2.59l1.31-0.09
		c0.24,1.18,1.01,1.68,2.43,1.58c1.22-0.09,1.92-0.55,1.87-1.23c-0.08-1.08-1.03-1.15-2.42-1.37c-2.16-0.33-3.61-0.57-3.75-2.55
		c-0.09-1.29,0.86-2.55,3.28-2.72C119.57,176.53,121.27,177.65,121.49,179.59z"/>
	<path d="M106.8,179.16c-0.12,1.48-0.98,1.99-1.82,2.56c-0.13,0.08-0.25,0.17-0.38,0.23c-0.51,0.33-0.9,0.57-0.97,1.26
		c-0.07,0.69,0.54,1.23,1.46,1.31c1.29,0.12,2-0.48,2.1-1.82l1.32,0.12c-0.15,1.94-1.46,2.98-3.52,2.79
		c-1.67-0.16-2.79-1.23-2.66-2.53c0.11-1.11,0.84-1.49,1.6-1.95c0.78-0.51,1.44-0.71,1.55-2.1L106.8,179.16z M107.16,177.63
		c-0.05,0.48-0.46,0.85-0.92,0.81c-0.48-0.04-0.82-0.49-0.78-0.97s0.47-0.84,0.95-0.8C106.87,176.72,107.21,177.15,107.16,177.63z"
		/>
	<path d="M73.74,165.18l-2.15,9.07l-1.16-0.79l1.98-7.56l-6.34,4.57l-1.16-0.79l7.67-5.28L73.74,165.18z"/>
	<path d="M69.67,162.39l-8.38,4.23l-1.07-0.93l3.08-8.86l1.05,0.92l-0.83,2.27l2.96,2.59l2.16-1.11L69.67,162.39z M65.38,163.2
		l-2.29-2l-1.53,4.03L65.38,163.2z"/>
	<path d="M62.06,155.62l-6.6,5.65l-1.13-1.33l3.43-6.75l-7.21,2.34l-1.13-1.32l6.6-5.65l0.86,1.01l-5.28,4.45l7.07-2.36l0.74,0.86
		l-3.47,6.58l5.25-4.49L62.06,155.62z"/>
	<path d="M51.2,149.31c-2.26,1.4-4.84,0.76-6.3-1.58c-1.45-2.34-0.88-4.94,1.38-6.35c2.27-1.41,4.86-0.78,6.32,1.56
		C54.04,145.28,53.47,147.89,51.2,149.31z M46.97,142.5c-1.54,0.96-2.37,2.66-1.14,4.64c1.24,1.99,3.13,2,4.67,1.04
		c1.56-0.97,2.38-2.67,1.15-4.66C50.41,141.54,48.53,141.53,46.97,142.5z"/>
	<path d="M46.59,139.04l-0.54-1.21c1.21-0.66,1.46-1.82,0.74-3.41c-0.56-1.25-1.33-1.75-2.14-1.39c-1.01,0.45-0.94,1.13-0.46,3.21
		c0.29,1.41,0.59,3.19-0.98,3.89c-1.31,0.59-2.62-0.18-3.47-2.05c-0.88-1.97-0.47-3.63,1.11-4.47l0.54,1.2
		c-1.03,0.63-1.23,1.53-0.65,2.82c0.5,1.11,1.18,1.62,1.81,1.33c0.99-0.44,0.72-1.36,0.45-2.74c-0.43-2.14-0.71-3.58,1.11-4.4
		c1.18-0.53,2.7-0.07,3.69,2.14C48.8,136.19,48.33,138.17,46.59,139.04z"/>
	<path d="M43.87,123.44l-7.35,1.94l0.8,3.02l-1.05,0.28l-1.94-7.33l1.05-0.28l0.8,3.02l7.35-1.94L43.87,123.44z"/>
	<path d="M42.48,117.74l-8.6,1.26l-0.51-3.51c-0.25-1.73,0.51-2.92,2.05-3.14c1.16-0.17,2.02,0.26,2.4,1.22
		c0.04-1.33,1.7-1.67,2.76-1.9c0.5-0.11,0.65-0.15,0.7-0.3l0.26-0.04l0.21,1.41c-0.09,0.12-0.41,0.18-0.83,0.25
		c-1,0.17-2.46,0.43-2.26,1.85l0.3,2.05l3.32-0.49L42.48,117.74z M37.78,117.07l-0.28-1.89c-0.12-0.85-0.43-1.72-1.73-1.53
		c-1.27,0.19-1.31,1.12-1.19,1.96l0.28,1.89L37.78,117.07z"/>
	<path d="M41.35,109.85l-8.79-3.28l-0.04-1.42l8.59-3.75l0.04,1.39l-2.23,0.93l0.11,3.93l2.28,0.83L41.35,109.85z M37.85,107.26
		l-0.08-3.04l-4,1.61L37.85,107.26z"/>
	<path d="M41.23,99.63l-8.66-0.82l0.37-3.84c0.19-1.94,1.14-3.06,2.51-2.93c0.85,0.08,1.4,0.57,1.64,1.46c0.34-1,1.2-1.56,2.29-1.45
		c1.59,0.15,2.43,1.46,2.24,3.47L41.23,99.63z M36.25,97.83l0.26-2.7c0.11-1.13-0.22-1.67-1.07-1.75c-0.81-0.08-1.3,0.43-1.39,1.39
		l-0.27,2.83L36.25,97.83z M40.26,98.21l0.28-2.9c0.11-1.2-0.3-1.84-1.28-1.93c-0.88-0.08-1.5,0.47-1.59,1.4l-0.3,3.16L40.26,98.21z
		"/>
	<path d="M42.11,91.07l-7.71-5.34l0.31-1.38l9.25-1.53l-0.3,1.36l-2.39,0.35l-0.86,3.84l2.01,1.36L42.11,91.07z M39.35,87.69
		l0.67-2.97l-4.27,0.58L39.35,87.69z"/>
	<path d="M44.52,81.13l-8.2-2.89l0.44-1.25l7.16,2.52l1.64-4.65l1.04,0.37L44.52,81.13z"/>
	<path d="M47.23,73.68l-7.8-3.85l0.58-1.19l3.26,1.61l2.16-4.38l-3.26-1.61l0.58-1.18l7.8,3.84l-0.58,1.18l-3.54-1.75l-2.16,4.38
		l3.54,1.75L47.23,73.68z"/>
	<path d="M51.41,65.38l-5.27-7.76l0.79-1.18l9.18,1.91l-0.77,1.16l-2.36-0.53l-2.19,3.27l1.38,2L51.41,65.38z M50.06,61.24
		l1.69-2.53l-4.2-1L50.06,61.24z"/>
	<path d="M57.07,57.2l-6.59-5.67l2.32-2.69c1.14-1.32,2.54-1.53,3.72-0.51c0.89,0.76,1.12,1.69,0.65,2.61
		c1.03-0.85,2.37,0.19,3.24,0.84c0.41,0.3,0.54,0.39,0.69,0.33l0.2,0.17l-0.93,1.08c-0.15,0.01-0.41-0.19-0.73-0.46
		c-0.78-0.64-1.94-1.58-2.87-0.49l-1.35,1.57l2.55,2.19L57.07,57.2z M54.5,53.21l1.25-1.45c0.56-0.65,1.02-1.46,0.03-2.31
		c-0.97-0.83-1.7-0.26-2.26,0.39l-1.25,1.45L54.5,53.21z"/>
	<path d="M62.86,46.94l-0.2-0.24l1.01-0.86l0.2,0.24c0.79,0.93,1.51,1.01,2.38,0.27c0.88-0.75,0.91-1.48,0.11-2.4l-3.91-4.56
		l1.01-0.86l3.91,4.56c1.21,1.41,1.08,2.86-0.4,4.11C65.51,48.45,64.07,48.35,62.86,46.94z"/>
	<path d="M68.91,41.55l-3.22-4.78l1.11-0.75l3.22,4.78c0.75,1.11,1.74,1.22,3.05,0.33c1.31-0.88,1.59-1.85,0.84-2.96l-3.22-4.78
		l1.09-0.73l3.22,4.78c1.1,1.63,0.63,3.3-1.31,4.61S70.01,43.18,68.91,41.55z"/>
	<path d="M78.44,38.81l-3.86-7.79l1.39-0.68l7.22,4.15l-3.07-6.2l1.18-0.58l3.86,7.79l-1.39,0.69l-7.19-4.13l3.06,6.18L78.44,38.81z
		"/>
	<path d="M89.36,33.95l-2.48-7.19l-2.96,1.02l-0.35-1.03l7.17-2.47l0.35,1.03l-2.96,1.02l2.48,7.19L89.36,33.95z"/>
	<path d="M93.44,27.98c-0.52-2.6,0.98-4.8,3.69-5.35c2.7-0.54,4.93,0.91,5.46,3.51c0.53,2.62-0.98,4.83-3.67,5.37
		S93.97,30.61,93.44,27.98z M101.29,26.4c-0.36-1.78-1.66-3.15-3.94-2.69c-2.29,0.46-2.96,2.23-2.61,4.01
		c0.36,1.8,1.66,3.16,3.96,2.7C100.98,29.96,101.65,28.2,101.29,26.4z"/>
	<path d="M104.69,27.27l1.32-0.07c0.18,1.37,1.18,2.02,2.92,1.92c1.37-0.08,2.11-0.61,2.06-1.49c-0.06-1.11-0.71-1.28-2.83-1.59
		c-1.42-0.24-3.19-0.6-3.28-2.31c-0.08-1.43,1.11-2.38,3.16-2.49c2.15-0.12,3.55,0.87,3.77,2.65l-1.31,0.07
		c-0.22-1.19-0.98-1.7-2.4-1.62c-1.22,0.07-1.93,0.52-1.89,1.2c0.06,1.08,1.01,1.17,2.4,1.4c2.15,0.37,3.6,0.62,3.71,2.61
		c0.07,1.29-0.91,2.54-3.32,2.67C106.56,30.36,104.88,29.21,104.69,27.27z"/>
	<path d="M119.36,27.93c0.14-1.48,1.01-1.98,1.86-2.53c0.13-0.08,0.25-0.17,0.38-0.23c0.52-0.32,0.91-0.56,0.99-1.24
		c0.08-0.68-0.52-1.24-1.44-1.34c-1.29-0.14-2.01,0.45-2.13,1.78l-1.32-0.15c0.18-1.94,1.51-2.96,3.57-2.73
		c1.67,0.19,2.77,1.28,2.63,2.58c-0.12,1.1-0.86,1.47-1.63,1.92c-0.79,0.5-1.46,0.69-1.58,2.07L119.36,27.93z M118.97,29.46
		c0.05-0.48,0.47-0.85,0.94-0.79c0.48,0.05,0.82,0.5,0.76,0.98s-0.48,0.83-0.96,0.78C119.24,30.38,118.92,29.94,118.97,29.46z"/>
</g>
<circle class="st38" cx="139.55" cy="31.21" r="2.88"/>
<circle class="st38" cx="86.89" cy="177.02" r="2.88"/>
</svg>
